<svg xmlns="http://www.w3.org/2000/svg" width="14" height="14" viewBox="0 0 14 14">
  <path fill="#0064EB" d="M132,679.899982 L132,682 L130,682 L130,679.899982 C129.361625,679.770399 128.767416,679.519193 128.24261,679.171603 L126.757359,680.656854 L125.343146,679.242641 L126.828397,677.75739 C126.480807,677.232584 126.229601,676.638375 126.100018,676 L124,676 L124,674 L126.100018,674 C126.229601,673.361625 126.480807,672.767416 126.828397,672.24261 L125.343146,670.757359 L126.757359,669.343146 L128.24261,670.828397 C128.767416,670.480807 129.361625,670.229601 130,670.100018 L130,668 L132,668 L132,670.100018 C132.638375,670.229601 133.232584,670.480807 133.75739,670.828397 L135.242641,669.343146 L136.656854,670.757359 L135.171603,672.24261 C135.519193,672.767416 135.770399,673.361625 135.899982,674 L138,674 L138,676 L135.899982,676 C135.770399,676.638375 135.519193,677.232584 135.171603,677.75739 L136.656854,679.242641 L135.242641,680.656854 L133.75739,679.171603 C133.232584,679.519193 132.638375,679.770399 132,679.899982 Z M131,678 C132.656854,678 134,676.656854 134,675 C134,673.343146 132.656854,672 131,672 C129.343146,672 128,673.343146 128,675 C128,676.656854 129.343146,678 131,678 Z" transform="translate(-124 -668)"/>
</svg>
