<svg xmlns="http://www.w3.org/2000/svg" width="16" height="16" viewBox="0 0 16 16">
  <path fill="#0064EB" d="M805,235 L809,235 L809,239 L805,239 L805,235 Z M811,235 L815,235 L815,239 L811,239 L811,235 Z M817,235 L821,235 L821,239 L817,239 L817,235 Z M805,241 L809,241 L809,245 L805,245 L805,241 Z M811,241 L815,241 L815,245 L811,245 L811,241 Z M817,241 L821,241 L821,245 L817,245 L817,241 Z M805,247 L809,247 L809,251 L805,251 L805,247 Z M811,247 L815,247 L815,251 L811,251 L811,247 Z M817,247 L821,247 L821,251 L817,251 L817,247 Z" transform="translate(-805 -235)"/>
</svg>
